<?xml version="1.0" encoding="UTF-8" standalone="no"?>
<svg
   shape-rendering="geometricPrecision"
   text-rendering="geometricPrecision"
   image-rendering="optimizeQuality"
   fill-rule="evenodd"
   clip-rule="evenodd"
   viewBox="0 0 512 512"
   version="1.1"
   id="svg834"
   sodipodi:docname="resistance-resistor-icon.svg"
   inkscape:export-filename="C:\Users\Dinh-Tuyen Le\Downloads\bitmap.png"
   inkscape:export-xdpi="96"
   inkscape:export-ydpi="96"
   inkscape:version="1.1.1 (3bf5ae0d25, 2021-09-20)"
   xmlns:inkscape="http://www.inkscape.org/namespaces/inkscape"
   xmlns:sodipodi="http://sodipodi.sourceforge.net/DTD/sodipodi-0.dtd"
   xmlns="http://www.w3.org/2000/svg"
   xmlns:svg="http://www.w3.org/2000/svg">
  <defs
     id="defs838" />
  <sodipodi:namedview
     id="namedview836"
     pagecolor="#ffffff"
     bordercolor="#666666"
     borderopacity="1.0"
     inkscape:pageshadow="2"
     inkscape:pageopacity="0.0"
     inkscape:pagecheckerboard="0"
     showgrid="false"
     inkscape:zoom="0.81068688"
     inkscape:cx="-110.40021"
     inkscape:cy="308.99723"
     inkscape:window-width="1600"
     inkscape:window-height="837"
     inkscape:window-x="-8"
     inkscape:window-y="-8"
     inkscape:window-maximized="1"
     inkscape:current-layer="svg834" />
  <path
     fill-rule="nonzero"
     d="M 0,493.17 58.31,434.87 27.14,403.7 c -9.96,-9.96 -14.31,-22.15 -14.31,-34.8 0,-13.22 4.93,-26.86 13.18,-38.66 13.72,-19.62 30.78,-34.79 47.85,-49.96 l 2.1,-1.86 c 19.56,-17.4 31.85,-21.65 44.04,-25.86 8.11,-2.8 16.17,-5.58 27.18,-13.87 l 87.56,-87.56 c 8.25,-10.91 11.63,-20.79 15.1,-30.92 5.03,-14.74 10.24,-29.95 27.95,-49.83 7.52,-8.44 15.76,-16.4 24.67,-23.91 8.77,-7.39 18.09,-14.2 27.9,-20.46 12.13,-7.73 25.78,-12.64 38.97,-12.64 12.4,0 24.27,4.16 34.13,14.01 L 434.62,58.55 493.17,0 512,18.82 453.45,77.37 483.9,107.82 c 9.86,9.86 14.02,21.73 14.02,34.13 0,13.19 -4.91,26.84 -12.65,38.97 -6.25,9.81 -13.07,19.13 -20.46,27.9 -7.51,8.92 -15.47,17.15 -23.91,24.67 -19.88,17.72 -35.09,22.92 -49.82,27.96 -10.14,3.46 -20.02,6.84 -30.93,15.1 L 272.6,364.1 c -8.29,11.01 -11.08,19.07 -13.88,27.18 -4.21,12.2 -8.46,24.48 -25.85,44.04 l -1.88,2.12 c -15.17,17.06 -30.33,34.12 -49.95,47.83 -11.8,8.25 -25.43,13.18 -38.66,13.18 -12.64,0 -24.83,-4.35 -34.8,-14.31 L 77.13,453.69 18.82,512 Z M 257.59,349.86 c -171.726667,-233.24 -85.86333,-116.62 0,0 z M 427.15,218.04 c 5.53,-4.93 10.74,-10.06 15.64,-15.39 L 308.63,68.49 c -5.33,4.9 -10.46,10.11 -15.39,15.64 -85.45405,94.96432 52.37845,205.25741 133.91,133.91 z m 21.09525,-10.5307 -134.16,-134.159998 m 20.91521,275.168518 c -223.33364,-232.34521 -111.66682,-116.17261 0,0 z"
     id="path832"
     sodipodi:nodetypes="ccssccccccccccscccccssccccccccccsccccccccccccccc" />
  <circle
     style="fill:#ffffff;fill-opacity:1;stroke:none;stroke-width:2.04626;stroke-miterlimit:4;stroke-dasharray:none;stroke-opacity:1"
     id="path4320"
     cx="145.45555"
     cy="366.13019"
     r="94.866142" />
  <path
     d="m 202.46974,442.95513 c 5.53,-4.93 -128.980004,-139.44001 -133.910004,-133.91001 -85.45405,94.96432 52.378454,205.25742 133.910004,133.91001 z"
     style="fill-rule:nonzero"
     id="path5781" />
</svg>
