<?xml version="1.0" encoding="UTF-8" standalone="no"?>
<!-- Created with Inkscape (http://www.inkscape.org/) -->

<svg
   width="426.7338mm"
   height="133.28723mm"
   viewBox="0 0 426.7338 133.28723"
   version="1.1"
   id="svg5"
   xml:space="preserve"
   inkscape:version="1.2.2 (732a01da63, 2022-12-09)"
   sodipodi:docname="tunnel-vs-NAT64.svg"
   xmlns:inkscape="http://www.inkscape.org/namespaces/inkscape"
   xmlns:sodipodi="http://sodipodi.sourceforge.net/DTD/sodipodi-0.dtd"
   xmlns="http://www.w3.org/2000/svg"
   xmlns:svg="http://www.w3.org/2000/svg"><sodipodi:namedview
     id="namedview7"
     pagecolor="#ffffff"
     bordercolor="#000000"
     borderopacity="0.25"
     inkscape:showpageshadow="2"
     inkscape:pageopacity="0.0"
     inkscape:pagecheckerboard="0"
     inkscape:deskcolor="#d1d1d1"
     inkscape:document-units="mm"
     showgrid="false"
     inkscape:zoom="0.5852904"
     inkscape:cx="621.91349"
     inkscape:cy="362.21335"
     inkscape:window-width="1600"
     inkscape:window-height="837"
     inkscape:window-x="-8"
     inkscape:window-y="-8"
     inkscape:window-maximized="1"
     inkscape:current-layer="layer1-6" /><defs
     id="defs2"><marker
       inkscape:stockid="Arrow1Lstart"
       orient="auto"
       refY="0"
       refX="0"
       id="Arrow1Lstart"
       style="overflow:visible"
       inkscape:isstock="true"><path
         id="path859"
         d="M 0,0 5,-5 -12.5,0 5,5 Z"
         style="fill:#000000;fill-opacity:1;fill-rule:evenodd;stroke:#000000;stroke-width:1pt;stroke-opacity:1"
         transform="matrix(0.8,0,0,0.8,10,0)"
         inkscape:connector-curvature="0" /></marker><marker
       inkscape:stockid="Arrow1Lend"
       orient="auto"
       refY="0"
       refX="0"
       id="Arrow1Lend"
       style="overflow:visible"
       inkscape:isstock="true"><path
         id="path862"
         d="M 0,0 5,-5 -12.5,0 5,5 Z"
         style="fill:#000000;fill-opacity:1;fill-rule:evenodd;stroke:#000000;stroke-width:1pt;stroke-opacity:1"
         transform="matrix(-0.8,0,0,-0.8,-10,0)"
         inkscape:connector-curvature="0" /></marker></defs><g
     inkscape:label="Layer 1"
     inkscape:groupmode="layer"
     id="layer1"
     transform="translate(152.33949,-52.698848)"><g
       inkscape:label="Layer 1"
       id="layer1-6"
       transform="translate(-174.06006,25.001896)"><path
         style="fill:none;stroke:#000000;stroke-width:0.264583px;stroke-linecap:butt;stroke-linejoin:miter;stroke-opacity:1"
         d="m 40.624969,47.904799 c 1.425437,0.53454 2.885154,0.985327 4.276312,1.603618 0.230264,0.102341 0.324874,0.394764 0.534537,0.534538 0.986843,0.657894 2.220394,0.945724 3.207235,1.603618 0.209663,0.139774 0.356359,0.35636 0.53454,0.534538 0.534538,0.53454 1.069078,1.069078 1.603616,1.603619 0.178181,0.178178 0.309157,0.421849 0.53454,0.534537 0.503968,0.251987 1.12046,0.244647 1.603616,0.534541 0.432149,0.259289 0.712718,0.712718 1.069078,1.069078 0.178181,0.178178 0.421849,0.309157 0.53454,0.534537 0.208751,0.417502 0.602012,2.20563 1.069078,2.672697 0.281726,0.281725 0.763003,0.279476 1.069078,0.53454 0.774319,0.645263 1.425438,1.425438 2.138156,2.138156 0.712719,0.712719 1.425438,1.425438 2.138156,2.138156 0.178181,0.178179 0.309158,0.421847 0.534541,0.534538 0.159366,0.07968 0.3655,-0.05635 0.534537,0 0.377976,0.125992 0.691103,0.408548 1.069079,0.53454 0.169037,0.05634 0.375171,-0.07968 0.53454,0 0.22538,0.112689 0.324874,0.394764 0.534538,0.534538 0.331507,0.221004 0.737571,0.313534 1.069078,0.53454 0.209663,0.139774 0.309157,0.421847 0.53454,0.534538 0.273963,0.136983 1.709618,-0.107132 2.138156,0 0.546629,0.136657 1.051105,0.424037 1.603616,0.53454 0.34944,0.06989 0.712719,0 1.069078,0 1.425437,0 2.850875,0 4.276312,0 1.781797,0 3.563594,0 5.34539,0 0.182105,0 1.848861,0.09643 2.138156,0 0.377979,-0.125991 0.691103,-0.408548 1.069078,-0.53454 0.338074,-0.112691 0.750343,0.159369 1.069079,0 0.225382,-0.112691 0.309157,-0.421849 0.53454,-0.534538 0.159369,-0.07968 0.365503,0.05635 0.534538,0 0.377978,-0.125992 0.712718,-0.356359 1.069078,-0.53454 0.356359,-0.178178 0.750342,-0.295487 1.069078,-0.534538 2.312037,-2.312037 -0.141605,-0.08378 2.138158,-1.603618 0.209662,-0.139777 0.290076,-0.473424 0.534538,-0.534538 0.518578,-0.129646 1.085038,0.129643 1.603619,0 0.244459,-0.06112 0.309157,-0.421849 0.534537,-0.53454 0.159369,-0.07968 0.375171,0.07968 0.534541,0 0.450762,-0.22538 0.618312,-0.843695 1.069078,-1.069078 0.22829,-0.114147 2.461384,0 2.672693,0 0.447617,0 2.266196,-0.101624 2.672697,0 1.292876,0.323217 1.236426,1.002466 2.138156,1.603618 0.33151,0.221004 0.73757,0.313534 1.06908,0.534538 0.41932,0.279551 0.60115,0.881909 1.06908,1.069078 0.68211,0.272844 1.45604,0.261697 2.13815,0.53454 0.58391,0.233564 0.78923,1.230487 1.06908,1.603616 0.30238,0.403175 0.71272,0.712719 1.06908,1.069078 0.17818,0.178181 0.40489,0.318466 0.53454,0.53454 0.40997,0.683287 0.57129,1.515925 1.06907,2.138157 0.2489,0.311115 0.75797,0.285646 1.06908,0.534537 0.5903,0.472242 1.06908,1.069078 1.60362,1.603619 0.17818,0.178178 0.35636,0.356359 0.53454,0.534537 0.17818,0.178181 0.42185,0.309158 0.53454,0.534541 0.42911,0.858226 0.63996,1.814467 1.06908,2.672694 0.11269,0.225382 0.35636,0.356359 0.53453,0.53454 0.35636,0.356359 0.74645,0.681918 1.06908,1.069078 0.57034,0.684406 1.10944,1.396884 1.60362,2.138156 1.54881,2.323211 -0.66949,-0.36979 1.06908,2.672694 0.96851,1.694889 1.84538,2.087144 2.6727,3.741774 0.25198,0.503968 0.32527,1.080463 0.53453,1.603616 0.14797,0.369927 0.42509,0.685988 0.53454,1.069081 0.2496,0.873582 0.12823,1.860068 0.53454,2.672694 0.17818,0.356359 0.71272,0.356359 1.06908,0.53454 0.17818,0.534538 0.42404,1.051105 0.53454,1.603616 0.0699,0.34944 0,0.712718 0,1.069078 0,0.53454 0,1.069078 0,1.603618 0,1.247257 0,2.494516 0,3.741776 0,1.60361 0,3.20723 0,4.81085 0,0.35636 0.18334,0.7635 0,1.06908 -0.38894,0.64822 -1.06908,1.06907 -1.60362,1.60361 -1.06908,1.06908 -2.20278,2.07722 -3.20723,3.20724 -0.42681,0.48016 -0.61481,1.14934 -1.06908,1.60361 -0.45427,0.45428 -1.08967,0.68362 -1.60362,1.06908 -0.91272,0.68455 -1.7234,1.5053 -2.67269,2.13816 -1.54968,1.03312 -2.51347,1.21187 -4.27632,1.60361 -0.8869,0.1971 -1.81885,0.22406 -2.67269,0.53455 -3.00013,1.09095 -2.57883,1.83076 -5.34539,2.13815 -0.88545,0.0984 -1.8084,-0.21607 -2.672696,0 -0.623255,0.15581 -0.976479,0.92972 -1.603619,1.06908 -1.043619,0.23191 -2.138156,0 -3.207234,0 -2.138156,0 -4.276312,0 -6.414468,0 -1.069078,0 -2.138156,0 -3.207234,0 -1.247259,0 -2.536629,0.32137 -3.741775,0 -1.539875,-0.41063 -2.790986,-1.56053 -4.276312,-2.13816 -1.733761,-0.67424 -3.607009,-0.94137 -5.34539,-1.60362 -3.075998,-1.1718 -9.484021,-4.47473 -12.294399,-5.87992 -3.801165,-1.90059 -4.871992,-2.68798 -9.087162,-3.74178 -1.222304,-0.30557 -2.583725,-0.0382 -3.741775,-0.53454 -1.408826,-0.60378 -2.396169,-1.93873 -3.741771,-2.67269 -4.867532,-2.65502 -0.247261,0.45212 -3.207235,-0.53454 -0.239053,-0.0797 -0.309157,-0.42185 -0.53454,-0.53454 -0.503968,-0.25198 -1.069078,-0.35636 -1.603616,-0.53454 -0.53454,-0.53454 -0.955394,-1.21468 -1.603618,-1.60362 -0.305575,-0.18334 -0.731007,0.1127 -1.069078,0 -0.169918,-0.0566 -2.081956,-2.100684 -2.138156,-2.138152 -0.148254,-0.09883 -0.365504,0.05635 -0.534538,0 -0.377978,-0.125992 -0.691102,-0.408546 -1.069078,-0.534538 -0.169037,-0.05634 -0.36168,0.04322 -0.53454,0 -0.546629,-0.136657 -1.056987,-0.397883 -1.603619,-0.53454 -0.172857,-0.04322 -0.375168,0.07968 -0.534537,0 -0.225383,-0.112691 -0.295487,-0.454853 -0.534541,-0.534538 -0.338071,-0.112691 -0.75034,0.159369 -1.069078,0 -0.901524,-0.450763 -1.299501,-1.579054 -2.138155,-2.138156 -0.148254,-0.09884 -0.37517,0.07968 -0.534539,0 -0.225381,-0.112691 -0.356359,-0.356359 -0.534539,-0.53454 -0.17818,-0.178179 -0.394763,-0.324877 -0.534539,-0.534538 -1.325844,-1.988767 -0.216293,-0.330631 -0.534539,-1.603618 -0.136657,-0.54663 -0.424037,-1.051105 -0.534539,-1.603616 -0.139776,-0.698878 0,-1.425438 0,-2.138156 0,-1.069081 0,-2.138159 0,-3.207237 0,-2.316334 0,-4.632672 0,-6.949006 0,-0.436981 -0.09031,-3.470852 0,-3.741775 0.07968,-0.239053 0.356359,-0.356359 0.534539,-0.534537 0.356359,-0.35636 0.766697,-0.665904 1.069078,-1.069078 0.17818,-0.35636 0.356359,-0.712719 0.534539,-1.069078 0,-0.178181 -0.07968,-0.375172 0,-0.534541 0.263001,-0.526002 1.875155,-1.612154 2.138156,-2.138156 0.07969,-0.159369 -0.07968,-0.375168 0,-0.534537 0.112691,-0.225383 0.42185,-0.309158 0.534538,-0.534541 0.07969,-0.159369 -0.07968,-0.375168 0,-0.534538 0.112692,-0.225382 0.421849,-0.309157 0.534541,-0.53454 0.159369,-0.318738 -0.15937,-0.75034 0,-1.069078 0.112691,-0.22538 0.421849,-0.309158 0.534537,-0.534538 0.07968,-0.159369 0,-0.356359 0,-0.53454 0,-0.356359 -0.112688,-0.731007 0,-1.069078 0.120656,-0.361963 1.399456,-1.19529 1.603619,-1.603616 0.251984,-0.50397 0.39788,-1.056989 0.53454,-1.603618 0.08643,-0.345721 -0.159369,-0.75034 0,-1.069078 0.112689,-0.225383 0.421846,-0.309158 0.534538,-0.534538 0.159369,-0.318738 -0.197673,-0.77257 0,-1.069078 0.279551,-0.419327 0.712718,-0.712721 1.069078,-1.069081 0.178181,-0.178178 0.421849,-0.309155 0.53454,-0.534537 0.159367,-0.318739 -0.159369,-0.75034 0,-1.069078 0.22538,-0.450763 0.909709,-0.590971 1.069078,-1.069078 0.112689,-0.338072 -0.112691,-0.731007 0,-1.069078 0.120653,-0.361964 1.399453,-1.19529 1.603616,-1.603619 0.07968,-0.159366 -0.07968,-0.375168 0,-0.534538 0.37098,-0.741963 0.951116,-0.53454 1.603618,-0.53454 0.178179,0 0.375169,0.07969 0.534538,0 0.225383,-0.112689 0.309158,-0.421846 0.53454,-0.534538 0.318736,-0.159369 0.75034,0.159369 1.069078,0 0.22538,-0.112691 0.377124,-0.337772 0.534538,-0.53454 0.556541,-0.695674 1.069078,-1.425437 1.603619,-2.138156 z"
         id="path839"
         inkscape:connector-curvature="0" /><path
         style="fill:none;stroke:#000000;stroke-width:0.264583px;stroke-linecap:butt;stroke-linejoin:miter;stroke-opacity:1"
         d="m 183.34689,66.613666 c -2.14773,1.162172 -3.86345,2.931993 -5.87993,4.276312 -1.79079,1.193866 -1.24222,-0.274817 -3.20723,2.672697 -0.19767,0.296508 0,0.712718 0,1.069078 -0.53454,0.712718 -1.01696,1.467686 -1.60362,2.138156 -0.66373,0.75855 -1.60395,1.283427 -2.13815,2.138156 -0.38937,0.622985 -0.206,1.481061 -0.53454,2.138156 -0.68547,1.370941 -1.98723,2.370831 -2.6727,3.741772 -0.25198,0.50397 -0.32527,1.080466 -0.53454,1.603618 -0.14797,0.369925 -0.38657,0.699154 -0.53454,1.069078 -0.20926,0.523153 -0.25498,1.114402 -0.53453,1.603619 -0.44201,0.773514 -1.25268,1.319289 -1.60362,2.138156 -0.21057,0.491318 0.0756,1.074449 0,1.603616 -0.1039,0.72727 -0.41377,1.413499 -0.53454,2.138156 -0.0586,0.351512 0,0.712718 0,1.069078 0,0.890899 0,1.781797 0,2.672696 0,0.712719 -0.11717,1.43513 0,2.13816 0.12077,0.72465 0.30222,1.4412 0.53454,2.13815 0.25198,0.75595 0.85017,1.37197 1.06908,2.13816 0.24959,0.87358 0.12822,1.86007 0.53454,2.67269 0.17817,0.35636 0.72743,0.32956 1.06907,0.53454 0.55089,0.33053 1.08967,0.68362 1.60362,1.06908 0.71286,0.53465 1.98013,2.55982 2.13816,2.67269 0.59781,0.42702 1.45027,0.27659 2.13815,0.53454 0.74611,0.2798 1.44159,0.6821 2.13816,1.06908 0.90821,0.50457 1.69989,1.23882 2.67269,1.60362 0.603,0.67614 1.46201,-0.22538 2.13816,0 0.37798,0.12599 0.67839,0.4564 1.06908,0.53454 0.52416,0.10483 1.09651,-0.16904 1.60362,0 0.60946,0.20315 1.00713,0.83048 1.60361,1.06908 0.33087,0.13234 0.72336,-0.0864 1.06908,0 0.38653,0.0966 0.71272,0.35636 1.06908,0.53453 0.53454,0.17819 1.0511,0.42404 1.60362,0.53455 0.34943,0.0699 0.71756,-0.0586 1.06907,0 0.72466,0.12077 1.41777,0.39046 2.13816,0.53454 0.17472,0.0349 0.37517,-0.0797 0.53454,0 0.57461,0.2873 1.029,0.78177 1.60362,1.06907 0.15937,0.0797 0.35636,0 0.53453,0 0.35636,0 0.72337,-0.0864 1.06908,0 0.38653,0.0966 0.69111,0.40855 1.06908,0.53454 0.25697,0.0857 3.66319,0 3.74178,0 0.45256,0 1.85078,0.0958 2.13815,0 0.24079,-0.0803 1.3002,-1.37605 1.60362,-1.60361 0.51395,-0.38547 1.14934,-0.61481 1.60362,-1.06909 0.96143,-0.96143 0.71406,-3.03093 1.60361,-4.27631 0.66314,-0.92839 1.47502,-1.7443 2.13816,-2.67269 0.23158,-0.32421 0.35636,-0.71272 0.53454,-1.06908 0.17818,-0.53454 0.22199,-1.13479 0.53454,-1.60362 0.41932,-0.62899 1.06908,-1.06908 1.60361,-1.60361 0.17818,-0.17818 0.39477,-0.32488 0.53454,-0.53454 1.17768,-0.26919 0.28256,-1.09965 0.53454,-1.60362 0.11269,-0.22538 0.45486,-0.29549 0.53454,-0.53454 0.10136,-0.30408 0,-2.16924 0,-2.67269 0,-0.74719 0.12183,-3.789017 0,-4.276316 -0.0611,-0.244462 -0.42185,-0.309158 -0.53454,-0.53454 -0.0797,-0.159369 0.0988,-0.386284 0,-0.534538 -0.27955,-0.419327 -0.84369,-0.618315 -1.06908,-1.069078 -1.45079,-0.839941 -0.13201,-2.200928 -0.53453,-3.207234 -0.2386,-0.596487 -0.73855,-1.052735 -1.06908,-1.603619 -0.20499,-0.341643 -0.35636,-0.712718 -0.53454,-1.069078 -0.35636,-0.712718 -0.78929,-1.392047 -1.06908,-2.138156 -1.4863,-0.712168 -0.31418,-1.791279 -0.53454,-2.672696 -0.13666,-0.546629 -0.42404,-1.051105 -0.53454,-1.603616 -0.0699,-0.34944 0.11269,-0.731007 0,-1.069078 -0.0797,-0.239054 -0.45485,-0.295487 -0.53454,-0.53454 -0.11269,-0.338072 0.11269,-0.731004 0,-1.069078 -0.15937,-0.478105 -0.78952,-0.649751 -1.06908,-1.069078 -0.442,-0.663014 -0.62706,-1.475142 -1.06907,-2.138156 -0.13978,-0.209664 -0.35636,-0.35636 -0.53454,-0.534538 -0.17818,-0.178181 -0.30916,-0.421849 -0.53454,-0.534541 -0.15937,-0.07968 -0.37517,0.07968 -0.53454,0 -0.22538,-0.112688 -0.33295,-0.383346 -0.53454,-0.534537 -5.30074,-3.975558 1.05826,0.883687 -2.67269,-1.603619 -0.41933,-0.27955 -0.61832,-0.843695 -1.06908,-1.069078 -0.50397,-0.251984 -1.1348,-0.22199 -1.60362,-0.534537 -0.14826,-0.09884 0.0797,-0.375172 0,-0.534541 -0.071,-0.141925 -1.46169,-1.532654 -1.60362,-1.603615 -0.15937,-0.07968 -0.37517,0.07968 -0.53454,0 -0.14192,-0.07096 -1.53265,-1.461694 -1.60361,-1.603619 -0.0797,-0.159369 0,-0.356359 0,-0.534538 -0.17818,-0.53454 -0.22199,-1.134795 -0.53454,-1.603618 -0.0988,-0.148254 -0.35636,0 -0.53454,0 -0.17818,0 -0.35636,0 -0.53454,0 -0.8909,0 -1.7818,0 -2.6727,0 -0.17818,0 -0.35635,0 -0.53454,0 -0.17817,0 -0.37516,-0.07968 -0.53453,0 -0.22539,0.112691 -0.30916,0.421849 -0.53454,0.53454 -0.31874,0.159367 -0.71757,-0.05859 -1.06908,0 -0.89618,0.149363 -1.7818,0.35636 -2.6727,0.534538 z"
         id="path841"
         inkscape:connector-curvature="0" /><text
         xml:space="preserve"
         style="font-style:normal;font-variant:normal;font-weight:normal;font-stretch:normal;font-size:9.87778px;line-height:1.25;font-family:Roboto;-inkscape-font-specification:'Roboto, Normal';font-variant-ligatures:normal;font-variant-caps:normal;font-variant-numeric:normal;font-feature-settings:normal;text-align:start;letter-spacing:0px;word-spacing:0px;writing-mode:lr-tb;text-anchor:start;fill:#000000;fill-opacity:1;stroke:none;stroke-width:0.264583"
         x="33.675961"
         y="82.649841"
         id="text845"><tspan
           sodipodi:role="line"
           id="tspan843"
           x="33.675961"
           y="82.649841"
           style="stroke-width:0.264583">Native IPv6</tspan></text><text
         xml:space="preserve"
         style="font-style:normal;font-variant:normal;font-weight:normal;font-stretch:normal;font-size:9.87778px;line-height:1.25;font-family:Roboto;-inkscape-font-specification:'Roboto, Normal';font-variant-ligatures:normal;font-variant-caps:normal;font-variant-numeric:normal;font-feature-settings:normal;text-align:start;letter-spacing:0px;word-spacing:0px;writing-mode:lr-tb;text-anchor:start;fill:#000000;fill-opacity:1;stroke:none;stroke-width:0.264583"
         x="172.65611"
         y="94.944237"
         id="text849"><tspan
           sodipodi:role="line"
           id="tspan847"
           x="172.65611"
           y="94.944237"
           style="stroke-width:0.264583">PC-IPv4</tspan></text><text
         xml:space="preserve"
         style="font-style:normal;font-variant:normal;font-weight:normal;font-stretch:normal;font-size:9.87778px;line-height:1.25;font-family:Roboto;-inkscape-font-specification:'Roboto, Normal';font-variant-ligatures:normal;font-variant-caps:normal;font-variant-numeric:normal;font-feature-settings:normal;text-align:start;letter-spacing:0px;word-spacing:0px;writing-mode:lr-tb;text-anchor:start;fill:#000000;fill-opacity:1;stroke:none;stroke-width:0.264583"
         x="124.5476"
         y="131.82744"
         id="text853"><tspan
           sodipodi:role="line"
           id="tspan851"
           x="124.5476"
           y="131.82744"
           style="stroke-width:0.264583">NAT64</tspan></text><path
         style="fill:none;stroke:#000000;stroke-width:0.265;stroke-linecap:butt;stroke-linejoin:miter;stroke-miterlimit:4;stroke-dasharray:none;stroke-opacity:1;marker-start:url(#Arrow1Lstart);marker-mid:url(#Arrow1Lstart);marker-end:url(#Arrow1Lend)"
         d="m 111.69195,118.68972 63.87799,-0.0945"
         id="path857"
         inkscape:connector-curvature="0"
         sodipodi:nodetypes="cc" /><text
         xml:space="preserve"
         style="font-style:normal;font-variant:normal;font-weight:normal;font-stretch:normal;font-size:9.87778px;line-height:1.25;font-family:Roboto;-inkscape-font-specification:'Roboto, Normal';font-variant-ligatures:normal;font-variant-caps:normal;font-variant-numeric:normal;font-feature-settings:normal;text-align:start;letter-spacing:0px;word-spacing:0px;writing-mode:lr-tb;text-anchor:start;fill:#000000;fill-opacity:1;stroke:none;stroke-width:0.264583"
         x="32.883926"
         y="149.96725"
         id="text1235"><tspan
           sodipodi:role="line"
           id="tspan1233"
           x="32.883926"
           y="149.96725"
           style="stroke-width:0.264583">Change the entire Header</tspan></text><path
         style="fill:none;stroke:#000000;stroke-width:0.264583px;stroke-linecap:butt;stroke-linejoin:miter;stroke-opacity:1"
         d="m 265.33927,29.392856 c -3.54941,0 -2.53031,-0.559102 -5.29165,1.511906 -0.28509,0.213815 -0.42508,0.623604 -0.75596,0.755951 -0.96464,0.385861 -2.12174,0.240485 -3.02381,0.755955 -7.05555,4.031744 0,1.007935 -3.0238,3.023809 -0.46883,0.312547 -1.06115,0.41788 -1.51191,0.755951 -0.57018,0.42763 -1.00794,1.007936 -1.5119,1.511906 -0.25199,0.251984 -0.43722,0.596583 -0.75596,0.755952 -0.22538,0.112691 -0.53057,-0.112692 -0.75595,0 -0.31874,0.159369 -0.50397,0.503968 -0.75595,0.755951 -0.25199,0.251984 -0.55828,0.459444 -0.75596,0.755952 -0.31254,0.468823 -0.50396,1.007938 -0.75595,1.511906 -0.25198,0.503968 -0.57777,0.977365 -0.75595,1.511906 -0.32855,0.985639 -0.4274,2.038167 -0.75595,3.023809 -0.17818,0.534538 -0.6193,0.965274 -0.75595,1.511903 -0.12223,0.488921 0,1.007938 0,1.511906 0,1.511903 0,3.023809 0,4.535715 0,1.007935 0,2.015871 0,3.023809 0,0.503968 -0.12223,1.022982 0,1.511903 0.91261,3.650454 0.35924,-0.03746 1.5119,2.267858 0.11269,0.225382 -0.11269,0.530571 0,0.755951 0.15639,0.312778 1.94744,2.054244 2.26786,2.267858 0.46882,0.31255 1.04308,0.443405 1.5119,0.755954 1.11237,0.741574 1.91145,2.282232 3.02381,3.023809 0.46882,0.312547 1.04309,0.443405 1.51191,0.755952 0.2965,0.197673 0.41788,0.64326 0.75595,0.755952 0.47811,0.159369 1.0338,-0.15937 1.5119,0 0.33808,0.112691 0.43722,0.596585 0.75596,0.755954 0.39341,1.767927 2.13936,0.461134 3.02381,0.755951 0.53454,0.178179 0.99401,0.533996 1.5119,0.755952 1.24726,0.53454 2.65069,0.75919 3.77975,1.511906 0.46884,0.312547 0.25199,1.259919 0.75597,1.511903 0.31498,0.157491 3.14978,-0.104992 3.77976,0 1.02481,0.170805 1.99898,0.58515 3.02381,0.755954 0.99423,0.165704 2.01586,0 3.02379,0 1.7639,0 3.5278,0 5.29167,0 6.55159,0 13.1032,0 19.65479,0 3.27577,0 6.55158,0 9.82736,0 1.25992,0 2.53698,0.207129 3.77976,0 5.47026,-0.911711 -1.1884,-0.359814 2.26787,-1.511906 0.47811,-0.159369 1.02299,0.12223 1.51189,0 0.54663,-0.136657 0.97737,-0.577773 1.51191,-0.755951 0.23905,-0.07968 0.50397,0 0.75596,0 0.50395,0 1.00793,0 1.51191,0 4.28371,0 8.56745,0 12.85118,0 0.0924,0 6.50643,-0.09905 6.80358,0 0.33806,0.112689 0.4372,0.596582 0.75594,0.755951 0.22984,0.11492 2.50182,0 3.02382,0 1.60245,0 4.86053,0.431136 6.04761,-0.755951 0.17819,-0.178181 -0.11269,-0.530572 0,-0.755954 0.15938,-0.318736 0.59658,-0.437214 0.75596,-0.755952 0.11269,-0.22538 -0.13978,-0.546288 0,-0.755952 0.39534,-0.593018 1.2472,-0.850161 1.51191,-1.511905 0.28075,-0.701885 -0.1243,-1.522191 0,-2.267858 0.131,-0.786 0.56269,-1.494803 0.75594,-2.267855 0.16,-0.639995 0,-2.23893 0,-3.023812 0,-1.763887 0,-3.527776 0,-5.291666 0,-6.047618 0,-12.095237 0,-18.142855 0,-1.702062 -0.34544,-2.613303 -1.51191,-3.779763 -0.25199,-0.251984 -0.41788,-0.64326 -0.75594,-0.755952 -0.4781,-0.159369 -1.00795,0 -1.51191,0 -1.00793,-0.251984 -2.06885,-0.346689 -3.02381,-0.755951 -4.69821,-2.013514 0.53115,-1.895391 -6.80358,-3.023812 -1.74336,-0.268211 -3.53502,0.159697 -5.29166,0 -1.03468,-0.09406 -2.01587,-0.503968 -3.0238,-0.755952 -1.76389,-0.251984 -3.51512,-0.619294 -5.29166,-0.755951 -1.50747,-0.115959 -3.02382,0 -4.53573,0 -2.01586,0 -4.03174,0 -6.04761,0 -2.51986,0 -5.0397,0 -7.55954,0 -0.17962,0 -2.85438,-0.08472 -3.02379,0 -0.31874,0.159369 -0.41788,0.64326 -0.75597,0.755951 -0.4781,0.159369 -1.02298,-0.122229 -1.5119,0 -0.54663,0.136657 -0.96528,0.619295 -1.51191,0.755952 -0.4889,0.122232 -1.03378,-0.159367 -1.51188,0 -0.33809,0.112691 -0.50398,0.50397 -0.75597,0.755954 -0.50395,0.251984 -0.96528,0.619294 -1.51191,0.755952 -0.48892,0.122229 -1.00793,0 -1.51191,0 -1.51188,0 -3.02379,0 -4.5357,0 -1.7639,0 -3.52777,0 -5.29167,0 -0.50397,0 -1.00793,0 -1.5119,0 -0.25199,0 -0.54629,0.139776 -0.75594,0 -0.59304,-0.395346 -0.87445,-1.193168 -1.51191,-1.511906 -0.67615,-0.338072 -1.59174,0.338074 -2.26788,0 -0.31872,-0.159367 -0.4372,-0.596583 -0.75594,-0.755952 -0.2409,-0.120451 -3.10414,0 -3.77976,0 -0.64492,0 -5.01078,-0.140438 -5.29166,0 -0.31875,0.159369 -0.43723,0.596585 -0.75597,0.755952 -0.22537,0.112691 -0.50395,0 -0.75594,0 -0.25199,0 -0.50398,0 -0.75594,0 -1.25992,0 -2.51987,0 -3.77979,0 z"
         id="path1237"
         inkscape:connector-curvature="0" /><path
         style="fill:none;stroke:#000000;stroke-width:0.264583px;stroke-linecap:butt;stroke-linejoin:miter;stroke-opacity:1"
         d="m 368.78292,94.121757 c -2.5862,-0.86752 -4.50374,1.18336 -6.80358,1.5119 -0.99779,0.14255 -2.02202,-0.1113 -3.02379,0 -0.73297,0.0815 -5.8207,1.1545 -6.80357,1.51191 -14.75756,5.366383 2.99016,0.29593 -9.82739,2.26785 -1.81314,0.27895 -3.4733,1.269463 -5.29167,1.511913 -1.99819,0.26643 -4.03685,-0.14363 -6.04761,0 -1.52887,0.1092 -3.01479,0.56584 -4.53572,0.75595 -1.6799,0.20999 -1.88987,-0.31498 -3.77976,0 -0.786,0.131 -1.48648,0.59968 -2.26785,0.75596 -0.49419,0.0988 -1.06114,-0.22539 -1.51191,0 -0.63749,0.31873 -1.00793,1.00793 -1.51191,1.5119 -0.25199,0.25198 -0.59658,0.43722 -0.75594,0.75595 -0.11269,0.22538 0,0.50397 0,0.75596 0,1.98054 0.0897,2.35752 1.51191,3.77976 0.25196,0.25198 0.4372,0.59658 0.75594,0.75595 0.22537,0.11269 0.522,-0.0936 0.75594,0 2.60287,1.04114 4.99586,2.64035 7.55954,3.77976 1.76387,0.75595 3.52777,1.5119 5.29167,2.26786 0.25199,0 0.51689,-0.0797 0.75594,0 0.53454,0.17818 0.96528,0.61929 1.51191,0.75595 0.48892,0.12223 1.01772,-0.0988 1.51191,0 0.78137,0.15627 1.48648,0.59968 2.26785,0.75595 0.49419,0.0988 1.02298,-0.12223 1.51191,0 0.54662,0.13666 0.95612,0.66332 1.5119,0.75596 0.99423,0.1657 2.06759,-0.31874 3.02382,0 0.67614,0.22538 0.90075,1.14521 1.51188,1.5119 2.27367,1.36419 3.54465,0.33879 6.04764,0.75595 0.55578,0.0926 0.95938,0.64545 1.51191,0.75596 0.74125,0.14825 1.5119,0 2.26785,0 1.76389,0 3.52776,0 5.29166,0 0.75594,0 1.5507,-0.23906 2.26785,0 0.33809,0.11268 0.43723,0.59658 0.75597,0.75595 0.43627,0.21814 3.46861,-0.20743 3.77976,0 0.59301,0.39534 0.87442,1.19316 1.51191,1.5119 0.18563,0.0928 4.84116,0 5.29166,0 4.28371,0 8.56745,0 12.85119,0 2.51983,0 5.03967,0 7.55951,0 0.64003,0 2.61742,0.13547 3.02382,0 0.33808,-0.11269 0.59658,-0.43721 0.75594,-0.75595 0.12046,-0.2409 0,-3.10415 0,-3.77976 0,-2.01588 0,-4.03175 0,-6.04762 0,-0.64003 -0.13547,-2.61741 0,-3.02381 0.11271,-0.33807 0.59658,-0.43722 0.75597,-0.75595 0.16819,-0.33638 -0.11526,-2.67805 0,-3.02381 0.11268,-0.33807 0.64325,-0.41788 0.75594,-0.75595 0.31874,-0.95622 -0.24445,-2.04597 0,-3.02381 0.13666,-0.54664 0.57777,-0.97737 0.75597,-1.51191 0.0797,-0.23905 0,-0.50397 0,-0.75595 0,-1.197633 0.22537,-2.042483 -0.75597,-3.023813 -1.36644,-1.36644 -2.82136,-0.47023 -4.5357,-0.75595 -0.55578,-0.0926 -0.95941,-0.64545 -1.51191,-0.75596 -1.23545,-0.24709 -2.51984,0 -3.77976,0 -3.52779,0 -7.05556,0 -10.58333,0 -1.7639,0 -3.5278,0 -5.29167,0 -0.50398,0 -1.00795,0 -1.51191,0 -0.25199,0 -0.53057,0.1127 -0.75596,0 -0.31872,-0.15937 -0.50396,-0.50396 -0.75594,-0.75595 -1.29048,-1.29049 -0.3996,-0.75595 -3.02382,-0.75595 z"
         id="path1241"
         inkscape:connector-curvature="0" /><text
         xml:space="preserve"
         style="font-style:normal;font-variant:normal;font-weight:normal;font-stretch:normal;font-size:9.87778px;line-height:1.25;font-family:Roboto;-inkscape-font-specification:'Roboto, Normal';font-variant-ligatures:normal;font-variant-caps:normal;font-variant-numeric:normal;font-feature-settings:normal;text-align:start;letter-spacing:0px;word-spacing:0px;writing-mode:lr-tb;text-anchor:start;fill:#000000;fill-opacity:1;stroke:none;stroke-width:0.264583"
         x="266.09525"
         y="52.827377"
         id="text1245"><tspan
           sodipodi:role="line"
           id="tspan1243"
           x="266.09525"
           y="52.827377"
           style="stroke-width:0.264583">IPv4 only network</tspan></text><text
         xml:space="preserve"
         style="font-style:normal;font-variant:normal;font-weight:normal;font-stretch:normal;font-size:9.87778px;line-height:1.25;font-family:Roboto;-inkscape-font-specification:'Roboto, Normal';font-variant-ligatures:normal;font-variant-caps:normal;font-variant-numeric:normal;font-feature-settings:normal;text-align:start;letter-spacing:0px;word-spacing:0px;writing-mode:lr-tb;text-anchor:start;fill:#000000;fill-opacity:1;stroke:none;stroke-width:0.264583"
         x="342.36255"
         y="111.02785"
         id="text1253"><tspan
           sodipodi:role="line"
           id="tspan1251"
           x="342.36255"
           y="111.02785"
           style="stroke-width:0.264583">Native IPv6</tspan></text><path
         inkscape:connector-curvature="0"
         id="path1400"
         d="m 272.83781,97.328991 c -1.96984,-0.86752 -3.43038,1.18336 -5.18211,1.5119 -0.75999,0.14255 -1.54011,-0.1113 -2.30314,0 -0.55828,0.0815 -4.43347,1.1545 -5.1821,1.511909 -11.24044,5.36638 2.27753,0.29593 -7.48526,2.26785 -1.38102,0.27895 -2.64552,1.26946 -4.03053,1.51191 -1.52196,0.26643 -3.07476,-0.14363 -4.6063,0 -1.1645,0.1092 -2.29629,0.56584 -3.45474,0.75595 -1.27953,0.20999 -1.43946,-0.31498 -2.87894,0 -0.59868,0.131 -1.13221,0.59968 -1.72736,0.75596 -0.37642,0.0988 -0.80825,-0.22539 -1.15159,0 -0.48556,0.31873 -0.76771,1.00793 -1.15158,1.5119 -0.19193,0.25198 -0.4544,0.43722 -0.57578,0.75595 -0.0858,0.22538 0,0.50397 0,0.75596 0,1.98054 0.0683,2.35752 1.15158,3.77976 0.19192,0.25198 0.33301,0.59658 0.57578,0.75595 0.17166,0.11269 0.3976,-0.0936 0.57578,0 1.98254,1.04114 3.80522,2.64035 5.75791,3.77976 1.34349,0.75595 2.68701,1.5119 4.03052,2.26786 0.19194,0 0.3937,-0.0797 0.57578,0 0.40715,0.17818 0.73523,0.61929 1.15158,0.75595 0.3724,0.12223 0.77517,-0.0988 1.15158,0 0.59515,0.15627 1.13222,0.59968 1.72737,0.75595 0.37641,0.0988 0.77917,-0.12223 1.15158,0 0.41634,0.13666 0.72825,0.66332 1.15157,0.75596 0.75728,0.1657 1.57483,-0.31874 2.30317,0 0.51499,0.22538 0.68607,1.14521 1.15156,1.5119 1.73179,1.36419 2.69986,0.33879 4.60632,0.75595 0.42333,0.0926 0.73074,0.64545 1.15159,0.75596 0.56459,0.14825 1.15157,0 1.72736,0 1.34351,0 2.687,0 4.03052,0 0.57577,0 1.18112,-0.23906 1.72736,0 0.25751,0.11268 0.33302,0.59658 0.5758,0.75595 0.33229,0.21814 2.64195,-0.20743 2.87894,0 0.45168,0.39534 0.66603,1.19316 1.15158,1.5119 0.14139,0.0928 3.68739,0 4.03052,0 3.26279,0 6.5256,0 9.78841,0 1.91929,0 3.83859,0 5.75788,0 0.4875,0 1.99362,0.13547 2.30317,0 0.2575,-0.11269 0.4544,-0.43721 0.57578,-0.75595 0.0917,-0.2409 0,-3.10415 0,-3.77976 0,-2.01588 0,-4.03175 0,-6.04762 0,-0.64003 -0.10319,-2.61741 0,-3.02381 0.0858,-0.33807 0.4544,-0.43722 0.5758,-0.75595 0.12811,-0.33638 -0.0878,-2.67805 0,-3.02381 0.0858,-0.33807 0.48995,-0.41788 0.57578,-0.75595 0.24278,-0.95622 -0.18619,-2.04597 0,-3.02381 0.10409,-0.54664 0.44007,-0.97737 0.5758,-1.51191 0.0607,-0.23905 0,-0.50397 0,-0.75595 0,-1.19763 0.17166,-2.04248 -0.5758,-3.02381 -1.04078,-1.366439 -2.14896,-0.470229 -3.45472,-0.755949 -0.42333,-0.0926 -0.73076,-0.64545 -1.15159,-0.75596 -0.94101,-0.24709 -1.91929,0 -2.87894,0 -2.68702,0 -5.37403,0 -8.06104,0 -1.34352,0 -2.68703,0 -4.03053,0 -0.38387,0 -0.76773,0 -1.15158,0 -0.19193,0 -0.40412,0.1127 -0.57579,0 -0.24277,-0.15937 -0.38386,-0.50396 -0.57578,-0.75595 -0.98293,-1.29049 -0.30437,-0.75595 -2.30317,-0.75595 z"
         style="fill:none;stroke:#000000;stroke-width:0.230912px;stroke-linecap:butt;stroke-linejoin:miter;stroke-opacity:1" /><text
         id="text1404"
         y="115.03689"
         x="243.47282"
         style="font-style:normal;font-variant:normal;font-weight:normal;font-stretch:normal;font-size:9.87778px;line-height:1.25;font-family:Roboto;-inkscape-font-specification:'Roboto, Normal';font-variant-ligatures:normal;font-variant-caps:normal;font-variant-numeric:normal;font-feature-settings:normal;text-align:start;letter-spacing:0px;word-spacing:0px;writing-mode:lr-tb;text-anchor:start;fill:#000000;fill-opacity:1;stroke:none;stroke-width:0.264583"
         xml:space="preserve"><tspan
           style="stroke-width:0.264583"
           y="115.03689"
           x="243.47282"
           id="tspan1402"
           sodipodi:role="line">Native IPv6</tspan></text><path
         style="fill:none;stroke:#000000;stroke-width:0.264583px;stroke-linecap:butt;stroke-linejoin:miter;stroke-opacity:1"
         d="m 272.8378,97.328989 c -1.14337,-2.576714 -2.40625,-5.103649 -3.43011,-7.730144 -0.19415,-0.498035 0,-1.069078 0,-1.603618 0,-1.069078 0,-2.138156 0,-3.207234 0,-1.603616 0,-3.207234 0,-4.81085 0,-0.452567 -0.0958,-1.850784 0,-2.138156 0.0797,-0.239054 0.42185,-0.309158 0.53454,-0.53454 0.65825,-1.316543 -1.55163,0.482547 0.53453,-1.603616 0.126,-0.125992 0.37516,0.07968 0.53454,0 0.22537,-0.112691 0.30917,-0.421849 0.53454,-0.534541 0.16267,-0.08134 1.36287,0 1.60361,0"
         id="path1406"
         inkscape:connector-curvature="0" /><path
         style="fill:none;stroke:#000000;stroke-width:0.264583px;stroke-linecap:butt;stroke-linejoin:miter;stroke-opacity:1"
         d="m 352.26124,94.944236 c -0.28815,-1.440776 -0.78094,-2.835537 -1.0691,-4.276312 -0.25373,-1.268768 1.01378,-0.05532 -1.06907,-2.138157 -0.28173,-0.281725 -0.78735,-0.252812 -1.06908,-0.53454 -0.28173,-0.281726 -0.31353,-0.737571 -0.53454,-1.069078 -0.13977,-0.209661 -0.42185,-0.309155 -0.53453,-0.534538 -0.15936,-0.318738 0.15938,-0.750339 0,-1.069078 -0.11269,-0.225382 -0.35637,-0.356359 -0.53454,-0.53454 -0.17817,-0.178178 -0.32488,-0.394761 -0.53454,-0.534538 -0.33149,-0.221004 -0.73758,-0.313534 -1.06907,-0.53454 -0.20966,-0.139774 -0.30917,-0.421846 -0.53454,-0.534538 -1.31654,-0.658273 0.48255,1.551625 -1.60361,-0.53454 -0.28173,-0.281726 -0.31354,-0.737571 -0.53454,-1.069078 -0.3075,-0.461254 -1.1861,-1.186096 -1.60362,-1.603616 -0.17819,-0.178181 -0.42185,-0.309158 -0.53456,-0.53454 -0.15936,-0.318736 0.15939,-0.75034 0,-1.069078 -0.22537,-0.450763 -0.78952,-0.649751 -1.06908,-1.069078 -0.18711,-0.280668 -0.54379,-1.428531 -1.06907,-1.603616 -0.33806,-0.112691 -0.73099,0.112691 -1.06908,0 -0.0664,-0.02215 -1.55776,-1.511911 -1.60361,-1.603619 -0.36867,-0.737319 0.64736,-0.478128 -0.53454,-1.069078 -0.21193,-0.105968 -1.49434,0.109281 -1.60361,0 -0.12599,-0.125992 0,-0.356359 0,-0.534537"
         id="path1408"
         inkscape:connector-curvature="0" /><text
         xml:space="preserve"
         style="font-style:normal;font-variant:normal;font-weight:normal;font-stretch:normal;font-size:9.87778px;line-height:1.25;font-family:Roboto;-inkscape-font-specification:'Roboto, Normal';font-variant-ligatures:normal;font-variant-caps:normal;font-variant-numeric:normal;font-feature-settings:normal;text-align:start;letter-spacing:0px;word-spacing:0px;writing-mode:lr-tb;text-anchor:start;fill:#000000;fill-opacity:1;stroke:none;stroke-width:0.264583"
         x="246.17725"
         y="141.82193"
         id="text1412"><tspan
           sodipodi:role="line"
           id="tspan1410"
           x="246.17725"
           y="141.82193"
           style="stroke-width:0.264583">Encapsulate IPv6 over IPv4</tspan><tspan
           sodipodi:role="line"
           x="246.17725"
           y="154.16916"
           style="stroke-width:0.264583"
           id="tspan1414">It need to be deployed at 2 nodes</tspan><tspan
           sodipodi:role="line"
           x="246.17725"
           y="166.51637"
           id="tspan1416" /></text><circle
         id="path489"
         style="fill:#000000;stroke:#000000;stroke-width:0.264583"
         cx="99.473991"
         cy="142.51886"
         r="0.060213257" /><circle
         id="path491"
         style="fill:#000000;stroke:#000000;stroke-width:0.264583"
         cx="99.473991"
         cy="142.51886"
         r="0.060213257" /></g></g></svg>
